<svg version="1.1" id="Layer_1" xmlns="http://www.w3.org/2000/svg" xmlns:xlink="http://www.w3.org/1999/xlink" x="0px" y="0px"
	 width="100%" viewBox="0 0 512 512" enable-background="new 0 0 512 512" xml:space="preserve">
<path fill="#B180FF" opacity="1.000000" stroke="none" 
	d="
M512.757874,224.705475 
	C513.000000,243.020889 513.000000,261.041779 513.000000,279.531342 
	C511.988892,282.153656 512.737488,284.440674 512.482178,287.019836 
	C511.346924,289.510590 509.932343,288.232635 508.737488,287.588928 
	C507.117096,286.715973 505.907227,285.286804 504.614136,283.994019 
	C471.555389,250.943466 438.522461,217.866989 405.413574,184.866776 
	C402.171234,181.635056 400.250458,176.960190 395.046570,175.298019 
	C389.438599,171.683731 386.435822,166.111023 382.206177,161.668198 
	C359.914093,138.252441 332.168610,125.335037 300.923615,119.075577 
	C286.212128,116.128349 271.328583,114.887527 255.901611,114.901352 
	C245.810928,115.531898 236.145752,115.183350 226.485596,115.202141 
	C196.827408,115.259850 167.169037,115.202423 137.510773,115.235985 
	C129.851349,115.244652 129.240128,115.841309 129.238190,123.516380 
	C129.214920,215.657028 129.213623,307.797668 129.232681,399.938324 
	C129.232986,401.437988 129.259003,402.937622 129.466339,404.847412 
	C129.981491,406.840027 130.292374,408.376923 131.613510,409.659454 
	C163.818832,440.924072 195.198013,473.019257 227.006424,504.683319 
	C229.134109,506.801361 232.240601,508.569061 231.228607,512.723145 
	C229.285645,513.000000 227.571289,513.000000 225.428467,513.000000 
	C220.775925,511.131042 216.212479,511.992126 211.826584,511.388458 
	C191.899368,508.645813 173.006165,502.410309 154.563293,494.645081 
	C129.344498,484.026917 106.547028,469.423767 86.148315,451.320953 
	C65.130074,432.668335 47.249836,411.278107 33.099247,386.856506 
	C18.957737,362.450623 9.244655,336.410583 3.492761,308.841156 
	C2.167228,302.487701 2.606902,295.958710 1.242131,289.294525 
	C1.000000,267.645782 1.000000,246.291550 1.000000,224.468658 
	C2.860345,221.843155 1.955530,219.176071 2.150787,216.783905 
	C3.766227,196.992523 9.874266,178.390411 17.078959,160.106567 
	C31.938910,122.395447 55.130814,90.376900 85.219963,63.520561 
	C119.820702,32.637356 160.094757,12.588541 205.647781,3.424427 
	C211.816437,2.183450 218.186066,2.430728 224.705734,1.242086 
	C246.020889,1.000000 267.041779,1.000000 288.531342,1.000000 
	C291.506134,2.965451 294.491058,1.914971 297.217682,2.137486 
	C316.499939,3.711068 334.653656,9.595123 352.505615,16.514473 
	C390.460327,31.225584 422.669250,54.393692 449.781769,84.501694 
	C480.953186,119.116943 501.101654,159.481888 510.514313,205.157608 
	C511.824951,211.517609 511.245636,218.056747 512.757874,224.705475 
z"/>
<path fill="#9A4DFF" opacity="1.000000" stroke="none" 
	d="
M395.109741,174.374435 
	C398.194000,173.831635 399.634827,176.118286 401.358002,177.840652 
	C436.577057,213.043701 471.773468,248.269394 506.979919,283.485046 
	C508.391693,284.897247 509.857300,286.255554 511.564941,287.823486 
	C512.855408,304.435730 508.428009,319.951752 503.616638,335.336761 
	C489.397430,380.804718 463.925842,419.145569 428.521118,450.714569 
	C393.998047,481.497467 353.778137,501.395935 308.374359,510.616089 
	C302.183075,511.873352 295.807587,511.435150 289.295593,512.757690 
	C269.979095,513.000000 250.958206,513.000000 231.468658,513.000000 
	C230.444550,510.591217 228.613617,509.109406 226.985687,507.481415 
	C195.450760,475.945496 163.913513,444.411987 132.385529,412.869141 
	C130.976654,411.459564 129.651154,409.966644 128.129700,408.213501 
	C129.378952,405.727936 131.661957,405.857513 133.792694,405.854523 
	C174.049149,405.798309 214.305801,405.604034 255.005035,405.984680 
	C284.950439,405.407013 313.838226,401.528229 340.762085,388.570312 
	C382.547058,368.460052 407.693481,335.390656 415.841797,289.784485 
	C421.587311,257.627106 418.509186,226.235870 405.475372,196.055939 
	C403.159760,190.694046 400.024872,185.766251 397.133026,180.712601 
	C396.062134,178.841187 394.688873,177.102493 395.109741,174.374435 
z"/>
<path fill="#000000" opacity="1.000000" stroke="none" 
	d="
M289.468658,513.000000 
	C288.136108,510.805908 289.928589,511.146790 290.993225,511.036804 
	C315.373413,508.518616 338.454987,501.389496 360.846313,491.659454 
	C383.670074,481.741547 404.301086,468.440948 423.233185,452.337830 
	C445.418671,433.467499 464.047546,411.562073 478.731171,386.489471 
	C492.789276,362.484985 502.680450,336.770905 508.150269,309.377991 
	C509.515686,302.539948 510.458099,295.657410 511.758118,288.409546 
	C511.964478,285.451172 512.096985,282.894409 512.614746,280.168823 
	C513.000000,356.260223 512.965942,432.520477 513.104004,508.780457 
	C513.110657,512.457275 512.258606,513.098511 508.727356,513.092590 
	C435.797516,512.969666 362.867371,513.000000 289.468658,513.000000 
z"/>
<path fill="#000000" opacity="1.000000" stroke="none" 
	d="
M513.000000,224.531342 
	C510.763489,226.047760 511.124054,224.184891 511.029694,223.124359 
	C509.351379,204.264832 504.330200,186.170059 497.926331,168.485245 
	C489.223907,144.452896 476.879761,122.349960 461.483673,101.910698 
	C451.702545,88.925606 440.491791,77.260284 428.617340,66.297287 
	C414.862091,53.597904 399.587433,42.863400 383.252045,33.596615 
	C367.143402,24.458483 350.296356,17.221531 332.585785,11.872980 
	C318.907806,7.742264 305.154114,4.044588 290.829987,3.021352 
	C289.705139,2.941000 288.968170,2.474581 288.660492,1.336750 
	C362.261658,1.000000 435.523407,1.035820 508.784790,0.894920 
	C512.473450,0.887826 513.097412,1.757346 513.091553,5.276858 
	C512.970032,78.205315 513.000000,151.134018 513.000000,224.531342 
z"/>
<path fill="#000000" opacity="1.000000" stroke="none" 
	d="
M1.000000,289.468658 
	C3.243174,287.944946 2.861507,289.811646 2.973322,290.875549 
	C6.214855,321.718079 16.130178,350.510101 30.473776,377.773376 
	C39.028732,394.034058 49.493149,409.108032 61.522293,423.105713 
	C79.087898,443.545929 99.082420,461.153381 121.952499,475.342712 
	C144.608704,489.399353 168.962006,499.672455 194.913284,505.971710 
	C204.380600,508.269775 213.871857,510.533051 223.665009,511.085480 
	C224.357422,511.124542 225.008514,511.896149 225.339417,512.663574 
	C151.738327,513.000000 78.476593,512.964172 5.215190,513.105103 
	C1.526532,513.112183 0.902595,512.242676 0.908459,508.723145 
	C1.029969,435.794708 1.000000,362.865967 1.000000,289.468658 
z"/>
<path fill="#000000" opacity="1.000000" stroke="none" 
	d="
M224.531342,1.000000 
	C226.053940,3.244036 224.186172,2.858869 223.122803,2.973511 
	C192.299683,6.296536 163.460327,16.081562 136.210617,30.484257 
	C119.978760,39.063522 104.879845,49.460987 90.897797,61.504387 
	C70.470047,79.099747 52.807842,99.065819 38.658833,121.966698 
	C26.476099,141.685059 16.990692,162.656937 10.821076,185.145203 
	C7.423237,197.530350 4.211540,209.873825 2.919685,222.670868 
	C2.848609,223.374924 2.098377,224.010452 1.332136,224.338928 
	C1.000000,151.071487 1.036031,78.142906 0.894796,5.214671 
	C0.887650,1.524596 1.759262,0.902722 5.277360,0.908576 
	C78.205650,1.029919 151.134186,1.000000 224.531342,1.000000 
z"/>
<path fill="#FFFFFF" opacity="1.000000" stroke="none" 
	d="
M257.344452,407.322571 
	C219.250473,407.676880 181.552994,407.722473 143.855530,407.770752 
	C138.873398,407.777130 133.891296,407.797363 128.440887,407.862823 
	C126.659607,406.132111 127.120468,404.065338 127.120049,402.107483 
	C127.099564,307.698944 127.126213,213.290390 127.023796,118.881973 
	C127.019135,114.586166 127.773766,112.832489 132.667313,112.858643 
	C173.792938,113.078468 214.920151,113.003136 256.512024,113.063614 
	C258.760284,114.444839 259.126099,116.357338 259.137939,118.412827 
	C259.268707,141.115067 259.302612,163.817291 259.115967,186.519394 
	C259.104980,187.853897 258.908661,189.163910 258.002625,190.786682 
	C255.871216,193.397308 253.261383,193.120193 250.801559,193.160904 
	C242.483582,193.298523 234.163193,193.126221 225.845291,193.251465 
	C220.416794,193.333176 219.617630,194.092194 218.618500,199.393570 
	C218.215073,201.534195 218.228134,203.698730 218.226959,205.860336 
	C218.206543,243.628799 218.206680,281.397247 218.226288,319.165710 
	C218.230560,327.386078 218.634567,327.744690 227.103271,327.779053 
	C234.756699,327.810089 242.410721,327.725128 250.063477,327.826630 
	C252.365891,327.857147 254.754578,327.587402 257.231262,329.260040 
	C259.218750,331.719818 259.181305,334.237579 259.188263,336.722534 
	C259.247894,357.945099 259.255157,379.167816 259.172607,400.390289 
	C259.163757,402.661743 259.520020,405.091095 257.344452,407.322571 
z"/>
<path fill="#E9ECF5" opacity="1.000000" stroke="none" 
	d="
M257.110535,191.066833 
	C256.979126,165.142960 256.988098,139.586777 256.987091,113.570587 
	C296.340973,112.721024 333.225891,120.988976 365.814392,144.268204 
	C377.168365,152.378769 386.502106,162.485794 395.036621,173.797363 
	C414.939362,202.400070 421.771179,234.206375 420.330383,268.246155 
	C419.058960,298.284180 410.833801,325.974915 392.395569,350.071930 
	C370.198914,379.080780 339.977295,395.042175 304.948730,402.921570 
	C289.447937,406.408356 273.694641,407.557037 257.401611,407.738068 
	C256.965546,382.100037 256.983185,356.569550 256.993195,330.577789 
	C260.330170,326.369812 265.086243,327.720703 269.136383,327.128906 
	C284.093719,324.943512 297.471313,319.384705 308.274475,308.857269 
	C318.436218,298.954895 324.640259,286.551208 326.717102,272.498993 
	C329.996277,250.311646 326.352234,229.656799 311.090118,212.246765 
	C302.758453,202.742538 291.675293,197.882721 279.616333,195.088394 
	C273.945038,193.774246 268.191010,192.839020 262.313782,193.051743 
	C260.468048,193.118546 258.624329,192.953262 257.110535,191.066833 
z"/>
<path fill="#9A4DFF" opacity="1.000000" stroke="none" 
	d="
M256.505463,190.746063 
	C265.464325,190.842361 273.950623,191.142288 282.219574,193.345703 
	C307.522278,200.088089 322.951813,216.266891 328.107788,241.956848 
	C332.958923,266.127960 329.141052,288.453796 312.445587,307.394653 
	C298.046967,323.729767 279.114746,329.790253 257.437073,330.046570 
	C244.992706,330.066010 232.998871,329.916138 221.007553,330.030212 
	C217.732178,330.061401 216.303574,329.409760 216.316925,325.708221 
	C216.472641,282.558929 216.537109,239.408905 216.419647,196.259613 
	C216.407578,191.824081 217.698196,190.616760 222.056625,190.728699 
	C233.377747,191.019485 244.711823,190.805511 256.505463,190.746063 
z"/>
</svg>