<svg width="28" height="6" fill="none" xmlns="http://www.w3.org/2000/svg"><path d="M2.293 4.644a.227.227 0 0 0 .108.098A2 2 0 1 0 3.454.917a13.732 13.732 0 0 0-1.9-.047c-.175.014-.28.17-.262.344.027.246.29.453.537.45.551-.006 1.377.026 1.513.045a1.2 1.2 0 0 1-.101 2.386c-.088.005-.323 0-.574-.014-.235-.013-.491.358-.374.563Z" fill="#fff"/><path d="M8.007 3.104H6.515c.016.35.185.524.508.524.109 0 .208-.03.296-.088a.313.313 0 0 0 .152-.18h.5c-.152.464-.475.696-.968.696-.323 0-.58-.1-.772-.3-.19-.203-.284-.465-.284-.788 0-.315.097-.575.292-.78.197-.208.452-.312.764-.312.336 0 .596.125.78.376.17.23.245.513.224.852Zm-1.492-.36h.924c-.054-.293-.204-.44-.452-.44a.444.444 0 0 0-.472.44Zm1.728.584h.54a.316.316 0 0 0 .136.268c.078.053.178.08.3.08a.502.502 0 0 0 .248-.056.228.228 0 0 0 .124-.208c0-.08-.056-.144-.168-.192a3.013 3.013 0 0 0-.476-.128 1.274 1.274 0 0 1-.452-.168.435.435 0 0 1-.204-.384c0-.443.3-.664.9-.664.571 0 .875.22.912.66h-.54c-.013-.187-.142-.28-.388-.28-.21 0-.316.064-.316.192 0 .088.067.156.2.204.016.005.164.04.444.104.206.048.356.107.452.176.136.096.204.23.204.404 0 .25-.098.439-.296.564-.162.104-.378.156-.648.156-.269 0-.488-.053-.656-.16a.66.66 0 0 1-.316-.568ZM10.508 4V1.932h.568V4h-.568Zm.568-2.856v.468h-.568v-.468h.568Zm2.435.788v1.936c0 .61-.357.916-1.072.916-.232 0-.432-.052-.6-.156a.614.614 0 0 1-.312-.508h.564c.046.19.187.284.424.284.304 0 .456-.17.456-.512V3.62h-.008c-.122.213-.33.32-.62.32-.293 0-.518-.103-.676-.308-.139-.184-.208-.428-.208-.732 0-.285.076-.523.228-.712a.794.794 0 0 1 .66-.312c.286 0 .49.11.616.332h.008v-.276h.54Zm-1.024 1.58a.43.43 0 0 0 .364-.176.63.63 0 0 0 .12-.396c0-.424-.161-.636-.484-.636a.392.392 0 0 0-.348.18.684.684 0 0 0-.112.408c0 .17.034.31.1.42.08.133.2.2.36.2ZM13.968 4V1.932h.54v.288h.012a.695.695 0 0 1 .632-.344c.286 0 .487.077.604.232.102.133.152.34.152.62V4h-.568V2.832c0-.339-.12-.508-.364-.508-.154 0-.266.047-.336.14-.069.093-.104.244-.104.452V4h-.568Zm3.091-2.688v.62h.416v.38h-.416v1.024c0 .096.017.16.049.192s.095.048.191.048a.899.899 0 0 0 .177-.016v.444c-.08.013-.191.02-.332.02-.435 0-.652-.164-.652-.492v-1.22h-.345v-.38h.345v-.62h.567Zm2.647 1.792h-1.492c.016.35.185.524.508.524.11 0 .208-.03.296-.088a.313.313 0 0 0 .152-.18h.5c-.152.464-.475.696-.968.696-.323 0-.58-.1-.772-.3-.19-.203-.284-.465-.284-.788 0-.315.097-.575.292-.78.197-.208.452-.312.764-.312.336 0 .596.125.78.376.17.23.245.513.224.852Zm-1.492-.36h.924c-.054-.293-.204-.44-.452-.44a.444.444 0 0 0-.472.44Zm3.793-.084h-.556c-.038-.237-.178-.356-.42-.356a.419.419 0 0 0-.38.22.906.906 0 0 0-.104.452c0 .173.034.319.104.436a.4.4 0 0 0 .368.216c.261 0 .412-.14.452-.42h.548c-.035.272-.142.481-.32.628-.176.147-.402.22-.676.22-.31 0-.562-.099-.756-.296-.192-.197-.288-.452-.288-.764 0-.33.092-.597.276-.8.192-.213.452-.32.78-.32.261 0 .48.064.656.192.194.144.3.341.316.592ZM22.339 4V1.144h.569V2.22h.011a.719.719 0 0 1 .604-.344c.286 0 .487.077.605.232.1.133.151.34.151.62V4h-.567V2.832c0-.339-.122-.508-.364-.508-.155 0-.267.047-.336.14-.07.093-.105.244-.105.452V4h-.567Zm2.388 0V1.932h.568V4h-.568Zm.568-2.856v.468h-.568v-.468h.568Zm2.407 1.96H26.21c.016.35.185.524.508.524.11 0 .208-.03.296-.088a.313.313 0 0 0 .152-.18h.5c-.152.464-.475.696-.968.696-.323 0-.58-.1-.772-.3-.19-.203-.284-.465-.284-.788 0-.315.097-.575.292-.78.197-.208.452-.312.764-.312.336 0 .596.125.78.376.17.23.245.513.224.852Zm-1.492-.36h.924c-.053-.293-.204-.44-.452-.44a.444.444 0 0 0-.472.44Z" fill="#333"/><rect width=".7" height="3" rx=".35" transform="matrix(-1 0 0 1 1.7 2)" fill="#B5179E"/></svg>